<svg width="579" height="699" viewBox="0 0 579 699" fill="none" xmlns="http://www.w3.org/2000/svg">
<path d="M372.98 180.87C378.811 180.771 382.444 186.224 385.581 190.417C389.439 195.573 388.029 200.002 386.909 205.768C388.514 209.878 400.862 226.119 392.395 228.599C389.04 228.015 387.401 221.482 385.445 218.841C384.427 217.468 383.635 216.702 382.423 215.515C376.988 218.664 368.843 225.439 365.139 230.452C364.64 234.546 364.603 236.453 366.405 240.51C372.902 253.618 383.188 258.746 396.775 252.539C408.291 247.279 400.37 221.744 406.106 218.705C410.028 219.242 409.905 225.136 412.172 228.111C415.118 232.322 420.833 236.175 423.749 240.097C425.698 242.716 425.865 253.035 426.507 256.591C427.347 261.258 432.229 274.365 429.225 277.888C426.238 278.864 425.777 274.127 423.817 272.914C422.038 271.813 419.649 270.857 417.716 269.904C416.166 261.973 420.267 249.836 416.928 244.174C415.327 243.2 412.377 242.903 411.599 244.699C410.383 247.508 410.786 249.902 409.178 252.767C403.907 262.159 392.911 266.289 382.556 264.766C376.763 263.913 370.782 260.636 364.876 262.068C357.864 263.806 356.286 274.691 358.243 280.559C360.742 288.057 372.578 289.732 378.989 293.527C386.523 297.988 393.88 305.31 397.854 313.171C398.667 314.877 398.786 320.393 399.513 322.292C400.432 324.678 401.954 326.137 402.777 328.705C402.395 331.324 399.032 332.146 396.738 332.635C390.234 334.024 383.553 335.383 378.637 340.231C373.295 345.5 372.837 353.176 371.386 360.101C370.106 365.941 368.693 371.337 368 377.351C367.303 383.422 367.423 390.156 365.695 396.054C362.827 403.293 355.665 414.645 350.339 420.448C340.018 431.619 326.862 437.67 312.701 442.448C304.066 445.363 302.497 444.998 293.745 445.517C292.748 446.247 291.844 447.073 290.914 447.889C288.944 453.094 289.604 461.115 289.42 466.913C289.137 475.883 288.533 487.327 289.338 496.153C291.143 515.956 297.019 542.469 306.171 560.026C309.402 566.261 313.246 572.156 317.644 577.627C319.117 579.463 323.234 583.3 323.793 584.917C320.587 585.842 310.969 585.409 306.991 585.395L282.428 585.392L251.971 585.501C248.749 585.511 232.719 586.016 230.971 584.508C231.727 583.562 233.687 582.672 234.804 581.958C249.321 572.617 252.72 550.025 255.905 534.417C260.018 514.263 260.7 493.808 260.442 473.323C260.358 466.61 261.173 455.131 259.365 448.885L259.241 448.469C256.932 447.657 255.725 446.401 253.084 445.756C249.98 444.998 247.423 445.223 244.298 444.947C239.918 444.554 235.449 442.971 231.211 441.837C213.387 436.588 202.896 429.956 190.738 415.755C185.626 409.7 180.499 402.566 177.674 395.095C176.655 392.402 176.146 388.631 175.22 385.829C173.08 379.163 171.476 371.808 171.057 364.818C170.177 350.118 171.486 335.582 152.974 332.69C149.717 332.181 141.986 332.152 141.193 328.157C142.249 322.067 153.489 320.193 158.572 320.178C186.07 320.095 198.483 342.428 203.398 366.306C205.463 379.043 205.75 389.447 213.98 400.3C225.38 415.331 239.761 423.096 259.093 423.308C260.717 414.297 260.232 404.56 260.306 395.361C260.367 377.589 260.98 360.903 259.494 343.056C258.121 326.559 246.887 338.134 238.703 322.177C233.885 312.784 210.288 304.284 201.443 298.519C199.596 297.316 193.605 296.459 191.065 295.119C189.945 290.366 194.066 289.704 197.511 289.886C205.903 290.329 212.142 293.982 219.425 297.563C225.519 300.559 231.822 303.058 237.422 306.99C244.388 311.535 250.718 321.58 259.21 323.274C273.286 326.082 287.615 318.669 302.115 321.839C311.271 331.003 297.715 331.278 291.76 335.325C288.714 341.203 289.651 366.845 289.625 374.808L289.56 397.959C289.554 401.157 289.215 418.929 291.565 420.407C296.985 423.816 310.291 415.195 315.021 412.331C328.662 404.078 335.686 390.307 338.257 374.989C339.073 370.344 339.433 365.418 340.468 360.841C342.279 352.575 345.761 344.766 350.701 337.894C355.307 331.579 361.407 326.504 368.454 323.123C375.227 319.793 380.723 321.021 387.978 320.123C389.098 319.985 390.088 319.626 390.746 318.701C390.545 308.773 373.09 299.831 365.074 296.394C360.557 294.537 356.734 293.3 352.203 291.275C336.936 284.447 330.919 273.29 336.515 257.129C336.797 256.314 338.336 254.559 339.173 254.269C342.467 256.044 338.979 268.725 343.785 271.084C344.505 271.156 345.034 271.206 345.703 270.892C348.158 269.74 349.616 264.328 350.923 261.879C351.589 260.63 352.347 259.293 353.299 258.239C355.016 256.335 358.403 254.48 359.236 252.038C361.189 246.323 351.135 237.587 357.485 226.058C362.722 216.55 375.196 212.304 378.613 201.743C380.396 196.234 378.05 189.981 374.247 185.854C373.226 184.747 371.547 183.957 370.867 182.628C371.526 181.447 371.618 181.678 372.98 180.87Z" fill="#028CA0"/>
<path d="M269.602 138.121C269.831 137.63 270.055 137.135 270.238 136.624C276.067 120.318 240.613 118.849 237.493 111.732C237.01 110.63 237.121 109.32 237.664 108.257C238.015 107.567 238.373 107.236 239.117 106.987C241.85 106.071 246.711 107.267 249.389 108.139C257.391 110.744 264.351 114.017 271.099 119.108C274.731 121.848 278.424 125.158 282.509 127.199C282.611 127.25 282.715 127.297 282.817 127.347C298.608 124.579 320.767 124.535 336.728 126.244C339.766 126.552 343.559 127.458 346.608 128.097C354.098 128.418 354.115 129.381 360.649 130.912C369.826 133.063 374.807 134.689 383.024 139.94C386.203 141.971 392.242 146.858 395.062 148.049C396.024 149.69 395.041 151.461 393.583 152.464C390.897 152.84 385.489 147.29 382.683 146.296C379.463 145.156 369.194 139.179 366.576 140.907C364.93 145.753 379.788 159.166 385.158 159.958C389.9 160.656 395.116 162.149 399.804 163.189C404.44 164.726 414.415 172.601 416.617 176.87C420.837 181.846 426.238 191.692 428.009 198.097C423.943 195.272 415.794 186.843 413.213 182.699L412.992 182.478C411.421 180.877 409.547 177.509 407.283 177.442C404.32 177.355 401.49 183.467 398.168 180.47C386.879 170.274 373.626 162.991 362.592 152.542C356.351 146.633 352.77 140.795 344.331 137.709L344.249 138.161C343.938 139.939 343.751 145.629 343.57 146.214C341.419 146.695 339.688 144.657 337.793 144.303C325.897 142.077 314.159 136.478 302.13 135.366C298.37 135.018 289.541 137.9 285.793 139.155C281.926 140.451 275.95 141.704 276.975 147.169C277.969 150.791 280.407 154.517 282.204 157.848C285.113 163.24 287.338 168.829 291.323 173.521C296.147 179.199 303.785 178.296 310.465 179.355C304.24 182.462 301.278 185.794 293.903 183.337C290.667 182.259 287.814 179.963 285.595 177.338C274.066 163.703 277.113 149.618 254.848 149.841C250.429 149.886 244.744 149.975 240.638 151.959C235.633 154.378 233.912 157.114 232.024 162.165L237.992 163.749C238.021 164.912 238.196 167.298 237.865 168.292C235.248 168.844 229.415 166.787 226.319 166.574C199.641 164.742 193.142 185.411 191.902 207.574C191.823 208.99 194.398 211.259 195.432 212.07C196.663 212.136 201.536 212.342 202.47 212.551C209.812 212.482 211.974 212.626 218.931 215.894C220.178 216.21 220.427 216.209 220.992 217.044L220.603 217.567C215.221 219.917 196.48 220.296 189.931 220.561C186.395 220.618 182.605 220.11 179.09 220.3C172.708 220.645 165.251 225.493 161.124 230.088C154.945 236.865 151.761 245.848 152.293 255.003C153.146 255.969 154.979 257.508 156.02 258.427C161.375 255.42 163.933 255.976 169.837 256.601C168.06 257.801 165.76 260.25 164.112 261.092C136.849 275.113 126.923 295.939 129.678 326.063C131.901 350.374 144.351 367.494 165.551 379.556C167.519 380.347 171.037 380.689 172.609 382.085C175.099 384.211 174.184 395.809 171.666 397.362C162.411 403.068 150.481 384.586 142.625 381.207C138.952 379.631 133.319 379.501 130.045 380.474C123.632 382.378 119.45 383.453 112.833 383.283C98.02 382.754 84.1271 375.962 74.6121 364.599C70.0815 359.234 66.245 353.053 61.3071 348.008C57.8375 344.636 53.5227 341.147 49.5834 338.422C34.5922 328.047 39.9162 312.973 39.582 297.863C39.3928 289.309 37.96 280.561 38.3608 271.716C38.6957 264.658 39.9763 257.677 42.1683 250.959C43.1888 247.749 46.2343 243.597 47.8092 239.794C52.6245 228.166 55.1228 215.477 62.5634 205.132C66.6342 199.473 74.1677 198.139 77.4337 193.537C82.1077 186.952 82.2928 179.885 88.5146 173.551C93.8065 168.165 99.4914 168.459 104.561 163.876C106.624 161.632 108.541 157.786 109.754 155.052C119.914 132.157 144.006 136.533 159.284 120.352C165.04 114.256 178.411 109.511 187.042 110.042C202.154 110.973 211.715 121.575 225.034 127.056C226.577 127.687 233.383 129.571 233.722 129.945L233.566 130.559C231.917 131.693 229.395 131.779 227.444 132.009C209.976 134.064 202.039 117.783 184.936 119.022C168.718 120.198 159.46 136.635 145.64 142.575C138.304 145.729 130.63 141.509 123.47 150.548C120.093 154.81 119.668 156.881 120.032 162.408C122.292 162.765 124.706 162.984 125.623 165.398C126.778 168.442 122.531 168.647 120.829 168.737C110.906 169.263 102.137 172.57 95.4254 180.179C93.1265 182.785 88.9127 189.417 92.2218 193.02C94.137 194.504 102.427 193.598 104.898 193.417C105.314 193.387 109.085 191.24 110.409 190.856C110.887 191.418 110.888 191.624 110.896 192.377C111.003 203.442 80.6213 200.103 71.0299 210.265C68.4446 213.004 65.2031 218.575 64.6237 222.267C64.3803 223.82 64.524 225.512 64.5684 227.079C68.3367 229.687 70.5988 231.094 74.8129 232.842C64.7435 235.428 59.3257 238.959 53.2448 247.894C47.589 256.204 46.092 270.906 48.2936 280.664C53.6828 274.21 54.4564 269.338 56.3576 261.388C56.8485 259.336 57.2968 257.206 58.166 255.276C59.2215 252.932 60.808 250.875 63.321 250.01C67.0589 248.723 71.4946 250.28 74.8238 252.04C79.2933 254.402 84.8682 259.392 86.2137 264.401C86.4687 265.351 86.3632 266.614 85.8234 267.443C84.419 269.602 74.7951 260.538 69.368 261.324C67.6273 261.576 66.2989 262.622 65.3533 264.073C62.9768 267.72 62.5054 272.969 61.1456 277.098C56.2074 292.094 49.1078 303.947 52.35 320.517C52.7839 322.734 53.4551 325.648 55.5304 326.902C56.4911 327.482 57.3616 327.562 58.422 327.286C62.0032 324.702 59.5739 308.53 61.7502 303.735C62.2097 302.722 62.9362 302.495 63.9075 302.158C68.1971 302.638 67.0462 311.597 71.2897 313.354C74.5026 314.684 80.5606 311.977 82.3897 309.389C86.0477 304.215 86.0228 297.001 87.7923 291.006C89.2899 285.65 90.9692 280.214 93.0282 275.047C93.657 273.47 95.3015 270.547 97.284 271.613C100.105 276.945 94.1671 312.272 88.2258 317.274C84.1636 321.81 71.1696 324.387 73.0616 332.62C79.0209 358.558 101.334 371.439 125.864 364.668C128.282 361.128 120.746 348.37 119.766 343.506C118.22 338.168 119.445 327.475 113.744 324.239C105.67 319.655 96.8705 312.4 100.302 301.895C101.221 299.08 104.472 299.242 107.106 299.008C109.244 303.194 109.312 309.457 115.045 310.213C117.059 310.478 117.537 308.54 118.019 307.006C118.603 305.144 118.952 303.166 119.691 301.355C124.226 290.979 126.911 279.354 125.037 268.043C124.499 263.824 122.875 259.451 122.32 255.281C121.477 248.951 121.079 242.888 119.318 236.671C118.998 235.541 119.08 232.612 120.006 231.749C124.892 230.86 130.048 244.65 130.871 248.341C131.969 253.27 131.394 259.803 133.589 264.501C134.185 265.775 137.145 266.084 138.486 266.329C138.974 263.656 139.064 259.305 139.316 256.405C140.277 245.383 141.843 239.055 147.715 229.566C148.78 226.835 157.732 218.689 157.975 216.463C158.656 210.232 153.233 200.625 156.665 194.106C157.431 192.653 161.042 192.405 161.936 194.229C163.005 196.167 162.681 198.796 162.958 200.913C164.233 210.636 171.492 215.041 177.8 205.581C186.362 192.991 177.534 177.765 163.931 173.895C157.313 172.011 149.672 172.621 144.977 178.485C138.559 186.502 143.876 200.336 138.431 208.497C137.45 211.101 132.112 213.93 129.882 212.003C129.726 208.84 133.397 209.919 135.221 204.466L135.374 204.003C135.84 201.32 134.84 193.672 134.385 190.793C131.85 174.728 138.934 164.349 155.516 162.497C167.786 161.126 174.937 166.421 184.123 174.142C185.125 173.345 186.049 172.333 186.95 171.411C188.165 163.245 185.439 160.123 180.379 154.267C178.81 152.45 178.574 149.7 180.789 148.256C186.254 148.009 192.788 158.817 195.135 163.064C195.896 163.1 196.657 163.129 197.419 163.152C203.287 163.312 207.845 159.471 213.296 157.579C215.27 156.894 220.265 154.739 221.541 153.196C229.879 143.108 201.982 145.47 202.064 139.132C204.031 137.11 210.018 137.562 212.78 137.225C220.881 136.236 226.666 142.786 234.298 143.819C242.488 144.927 250.916 143.419 258.808 141.265C263.672 140.004 264.914 141.421 269.602 138.121Z" fill="#028CA0"/>
<path d="M416.617 176.871C420.837 181.846 426.238 191.693 428.009 198.098C423.943 195.272 415.794 186.844 413.213 182.699C414.395 182.89 419.703 189.311 421.021 190.715C421.144 189.474 421.414 188.265 421.386 186.988C421.315 183.572 416.812 179.83 416.617 176.871Z" fill="#18585D"/>
<path d="M138.431 208.497C137.45 211.101 132.112 213.93 129.882 212.003C129.726 208.84 133.397 209.919 135.221 204.466L135.374 204.003C136.3 206.238 135.618 207.056 136.358 208.989L136.903 209.228C137.564 208.774 137.584 208.805 138.051 208.167L138.431 208.497Z" fill="#19454E"/>
<path d="M202.47 212.551C209.812 212.482 211.974 212.626 218.931 215.894C215.975 215.94 203.617 215.134 202.47 212.551Z" fill="#0CA2AF"/>
<path d="M336.728 126.244C339.766 126.553 343.559 127.459 346.608 128.097C344.31 129.166 335.533 128.871 334.058 126.795C334.815 126.141 335.534 126.321 336.728 126.244Z" fill="#0CA2AF"/>
<path d="M473.51 203.244C481.304 205.109 486.848 219.915 488.613 226.882C489.535 230.525 489.692 234.596 491.249 238.033C493.089 242.103 496.851 245.303 499.548 248.817C508.397 260.355 513.327 282.052 508.475 296.022C506.502 301.702 502.842 305.99 501.637 312.155C500.091 320.09 501.791 328.055 500.688 335.969C498.404 352.374 480.625 354.405 470.407 363.651C464.453 369.033 463.33 376.115 455.406 380.354C448.336 384.136 439.439 382.788 432.738 387.225C427.873 390.443 426.002 396.307 421.352 399.792C413.401 405.754 403.446 405.256 394.051 405.202C390.504 405.181 386.759 405.338 383.246 404.826C380.15 404.376 375.94 403.321 374.07 400.597C372.888 398.877 372.864 396.491 373.325 394.529C373.988 391.716 376.091 389.314 378.566 387.873C385.1 384.071 392.409 388.512 398.827 390.3C403.04 391.478 408.048 392.249 411.998 389.867C414.248 388.508 416.04 386.235 417.157 383.883C423.124 371.306 412.159 358.128 413.384 353.961C413.586 353.275 413.927 352.91 414.579 352.633C416.924 351.64 423.09 353.643 425.439 354.586L425.917 354.78C427.835 353.886 430.785 353.08 432.191 351.722C436.616 347.107 437.572 338.239 433.393 333.116C426.907 325.163 412.312 327.352 413.128 313.696C413.312 310.597 414.477 305.8 416.836 303.861L417.505 303.951C420.611 307.128 419.714 313.325 424.199 316.72C431.174 321.997 438.401 321.117 444.048 329.323C447.8 334.778 447.667 341.588 446.612 347.923C444.645 354.606 440.095 358.719 435.346 363.422C433.325 365.425 431.304 369.368 434.066 371.562C435.523 371.845 444.884 371.081 446.755 370.832C458.909 369.016 462.493 355.272 459.875 344.899C458.308 338.693 454.075 330.508 464.122 330.262C465.05 330.239 465.395 329.913 465.89 329.26C466.911 321.85 455.386 314.593 451.002 309.148C446.96 304.129 443.713 300.603 441.696 294.341C437.114 280.118 446.585 271.73 448.39 258.895C449.07 253.336 444.744 247.706 446.851 242.385C447.226 241.436 449.333 240.518 449.753 241.02C454.959 247.215 455.232 253.964 462.398 258.97C465.935 259.42 474.848 258.862 476.733 259.928C477.474 261.259 477.46 262.855 477.61 264.42C472.554 265.156 463.166 265.8 458.137 265.278C452.699 269.375 451.753 274.949 450.688 281.274C447.909 297.823 462.476 305.653 471.998 316.263C477.136 321.99 479.283 326.517 476.067 334.161C474.459 338.115 470.059 343.961 471.038 348.391C471.417 348.886 471.725 349.155 472.349 349.305C473.81 349.657 475.476 348.773 476.712 348.063C480.611 345.834 484.308 342.739 487.135 339.249C488.613 337.424 490.3 335.183 491.18 332.996C496.394 320.086 483.093 302.095 484.732 296.958C484.981 296.183 485.104 296.114 485.773 295.742C488.569 296.143 491.221 299.895 494.253 298.96C497.121 298.077 497.896 293.759 498.442 291.174C501.46 276.838 499.644 261.623 492.713 248.658C490.109 243.796 485.892 239.848 483.694 234.685C481.202 229.055 481.615 222.396 479.256 216.767C477.651 212.943 474.609 209.379 473.145 205.46C472.732 204.359 472.96 204.102 473.51 203.244Z" fill="#028CA0"/>
<path d="M263.484 201.268C270.445 197.385 278.028 197.625 284.997 194.175C286.893 193.464 291.032 189.423 292.28 192.835C293.513 196.208 287.025 199.249 286.017 201.975C284.796 205.277 285.389 210.532 286.057 213.984C289.58 232.198 289.273 243.773 310.16 248.283C316.779 246.33 320.383 238.539 323.333 232.752C325.973 227.571 331.572 217.173 323.968 213.698C322.212 212.851 319.1 212.163 317.94 210.758C317.749 209.803 317.676 209.72 317.823 208.733C318.088 208.468 318.15 208.391 318.409 208.178C320.228 206.679 337.815 207.945 340.983 208.322C349.971 206.183 351.719 205.758 357.72 198.995C358.57 198.039 361.718 198.706 362.288 201.339C361.424 205.084 356.286 210.098 353.04 212.307C348.417 215.45 343.078 214.298 339.605 217.022C338.588 217.834 337.761 218.86 337.185 220.027C336.63 221.155 336.079 223.247 335.694 224.518C330.623 241.262 315.54 258.32 326.492 275.759C335.23 289.67 354.576 301.674 351.821 319.691C350.896 325.713 342.801 329.174 339.788 324.064C337.591 320.34 340.843 310.154 337.541 305.637C331.536 295.433 324.689 291.542 318.719 280.719C317.274 278.062 316.09 275.271 315.185 272.386C314.054 268.894 312.996 261.344 311.054 259.357C307.305 255.516 299.524 254.999 294.804 251.657C289.035 247.573 285.233 240.864 280.91 235.453C274.808 227.814 281.894 218.71 275.539 211.043C272.105 206.899 267.512 205.414 263.484 201.268Z" fill="#028CA0"/>
<path d="M317.823 208.733C318.088 208.468 318.15 208.392 318.409 208.178C320.228 206.679 337.815 207.945 340.983 208.322C336.203 209.32 322.563 209.861 317.823 208.733Z" fill="#028CA0"/>
<path d="M462.719 107.287C463.272 107.21 465.006 107.027 465.44 107.103C469.915 107.888 473.667 116.523 477.248 120.452L477.607 120.841C481.703 111.653 485.715 120.052 490.276 124.127C493.126 126.673 496.366 130.677 498.725 133.712C502.706 138.829 499.845 147.696 502.436 152.672C505.553 154.453 515.252 150.599 519.175 154.021C519.864 155.924 518.867 157.589 517.577 158.993C513.613 163.306 509.36 168.982 504.232 171.816C503.58 172.26 501.214 173.844 500.797 173.909C492.577 175.194 489.006 177.585 483.219 183.261C481.485 184.963 479.013 183.342 477.498 181.867C475.756 180.174 473.203 177.409 474.336 174.603C475.569 171.675 478.89 172.37 481.092 171.515C482.588 168.921 478.986 164.024 477.286 162.003C469.512 152.766 468.195 139.539 465.255 128.216C463.975 123.279 459.404 111.784 462.719 107.287Z" fill="#028CA0"/>
<path d="M404.341 26.4458C409.629 27.5769 431.512 52.076 434.448 57.8701C435.459 59.8647 435.995 66.5796 436.22 69.1602C441.286 61.7907 444.546 57.1346 444.195 48.1701C444.164 47.4216 444.423 46.4618 445.031 45.9171C450.285 46.9328 454.925 68.1841 453.283 73.0416C452.221 76.17 448.192 79.1319 448.018 82.4098C447.81 86.3496 452.05 83.6778 454.754 86.7639C455.703 89.334 453.955 90.461 452.067 91.7685C444.365 97.6322 436.961 98.3268 428.34 100.737C425.944 101.408 429.607 107.414 421.881 106.58C411.165 105.423 404.481 102.926 407.898 91.1094C408.492 89.3452 419.915 91.834 422.479 92.3897C423.96 85.0618 419.58 76.4335 417.966 69.2647C416.836 64.2423 415.951 59.0739 414.634 54.1218C413.91 51.5153 411.8 48.2554 411.155 45.7594C409.421 39.0302 405.778 33.1495 404.341 26.4458Z" fill="#028CA0"/>
<path d="M485.425 26.0129C487.63 25.943 490.003 26.209 492.218 26.4017C492.662 28.2937 493.263 30.2511 493.806 32.1264C496.294 34.7693 500.582 35.8512 502.952 39.6015C506.062 44.8567 509.899 52.7607 509.742 59.0134C509.39 61.8146 505.611 69.7657 507.622 72.0702C508.701 73.3092 521.363 73.3057 519.202 79.5264C518.13 82.619 507.95 85.6512 504.669 87.212C499.07 89.3827 490.453 86.6652 484.646 89.1606C482.349 90.1483 480.003 91.9804 477.504 90.4115C472.435 82.8876 474.305 81.692 481.703 78.538C483.936 77.5871 480.386 65.7628 480.331 63.002C480.095 51.3033 482.909 40.0671 483.871 28.4528C483.98 27.1098 484.414 26.7505 485.425 26.0129Z" fill="#028CA0"/>
<path d="M410.247 463.893C419.232 460.504 424.152 460.562 433.267 464.364C446.137 469.119 453.542 478.068 462.275 487.495L462.452 488.273C461.172 489.324 453.3 485.614 449.63 486.286C445.816 486.986 441.395 487.126 437.466 488.43C432.004 489.256 427.183 490.365 421.902 491.99C411.681 495.133 400.275 485.976 397.735 476.262C399.807 476.494 400.777 476.457 402.869 476.371L403.265 475.607C402.893 474.306 402.811 474.556 401.695 473.457C399.797 474.095 399.196 474.163 397.137 474.105C395.454 473.46 394.154 473.934 392.542 474.668C391.9 474.962 391.269 475.272 390.644 475.6C389.845 474.583 388.729 474.692 387.326 474.467C392.993 474.037 402.811 465.607 410.247 463.893Z" fill="#028CA0"/>
<path d="M401.695 473.456C409.373 468.408 416.085 470.258 423.708 473.507C426.306 474.613 430.085 474.054 432.874 475.129L432.895 475.477C427.033 477.156 409.158 476.6 402.869 476.371L403.265 475.607C402.893 474.306 402.811 474.555 401.695 473.456Z" fill="#0CA2AF"/>
<path d="M410.247 463.893C419.232 460.504 424.152 460.562 433.267 464.364C432.099 464.753 430.027 464.61 428.627 464.736C422.561 465.275 416.108 466.101 410.247 463.893Z" fill="#0CA2AF"/>
<path d="M501.886 567.548C503.426 567.467 503.696 567.692 504.891 566.927C505.273 565.378 505.078 561.756 505.082 559.968C505.092 552.541 508.096 544.715 514.969 540.998C524.429 535.878 538.296 536.479 548.053 532.206C552.115 530.424 555.563 526.021 559.295 523.615C555.98 538.79 548.558 556.671 534.865 565.009C526.986 569.811 519.355 570.071 510.602 569.439C509.401 568.528 507.868 567.17 506.564 566.651C505.983 567.753 505.72 568.542 504.365 568.907C503.341 567.716 503.641 568.084 501.886 567.548ZM513.402 563.149C514.89 562.893 518.13 562.272 519.048 561.163C518.051 561.108 517.143 561.047 516.153 560.948C512.633 561.009 512.039 560.746 509.117 562.586L508.987 563.081C510.213 563.838 511.978 563.381 513.402 563.149Z" fill="#028CA0"/>
<path d="M516.153 560.947C517.143 561.046 518.051 561.108 519.048 561.162C518.13 562.272 514.89 562.893 513.402 563.149C511.978 563.381 510.213 563.838 508.987 563.08L509.117 562.586C512.039 560.746 512.634 561.009 516.153 560.947Z" fill="#21CADC" fill-opacity="0.988235"/>
<path d="M544.298 411.414L544.315 411.929C544.475 416.475 545.871 421.458 546.407 425.96C547.869 438.234 547.186 453.435 538.258 462.886C530.994 470.576 526.467 473.136 516.28 474.04C515.085 475.477 514.747 475.993 513.002 476.624C513.825 475.941 514.388 475.631 514.706 474.62C514.231 473.713 514.364 473.989 513.292 473.409L514.166 473.173C514.159 472.095 512.866 471.286 512.2 470.46C507.799 464.992 506.888 450.07 512.753 445.292C522.281 437.527 534.172 430.916 540.819 420.202C542.164 418.035 543.01 414.031 544.298 411.414Z" fill="#028CA0"/>
<path d="M534.373 442.93L535.254 443.459C536.398 446.121 529.218 456.381 527.368 458.9C523.722 463.866 520.861 468.009 515.307 470.924L514.573 470.705L514.31 470.17C515.232 468.231 520.359 464.698 522.097 462.589C527.416 456.121 531.041 450.555 534.373 442.93Z" fill="#31C6D5"/>
<path d="M228.051 233.966C229.287 234.602 230.413 237.409 230.218 238.718C229.664 248.101 217.61 255.447 213.907 261.603C204.829 276.695 197.305 282.425 178.947 281.265C176.864 281.134 168.756 280.563 167.425 279.014C166.043 273.514 178.602 274.224 182.728 272.856C191.33 270.07 201.453 266.338 200.982 255.406C200.702 248.877 192.33 244.392 188.024 240.489C187.349 239.878 186.429 239.037 186.354 238.119C186.23 237.286 186.756 235.544 187.359 235.157C193.296 231.35 209.369 246.657 214.597 246.492C219.302 246.344 224.867 237.093 227.745 234.263L228.051 233.966Z" fill="#028CA0"/>
<path d="M312.639 361.504C316.511 361.494 319.373 362.586 322.9 364.009C324.624 363.511 327.632 362.026 329.076 362.995C332.095 371.395 320.961 380.774 314.449 384.017C311.465 385.331 302.173 388.443 299.98 384.88C300.836 381.853 309.459 380.563 312.755 372.607L312.913 372.218C312.471 369.262 311.211 363.801 312.639 361.504Z" fill="#028CA0"/>
<path d="M283.912 281.043C287.066 281.055 289.425 283.192 292.463 283.926C296.191 284.799 304.984 282.321 303.267 289.158C302.543 292.04 299.789 294.892 297.795 297.058C295.19 299.887 292.624 303.581 289.318 305.54C288.723 305.791 288.115 306.011 287.496 306.198C284.389 307.132 275.108 307.421 274.439 303.53C276.034 300.468 281.87 299.772 284.848 298.623C286.26 298.078 287.161 295.278 287.699 293.892C286.779 289.172 284.712 286.409 283.912 281.043Z" fill="#028CA0"/>
<path d="M226.118 341.933C229.726 341.687 231.176 345.23 234.648 345.848C237.318 346.339 240.403 344.503 243.012 344.742C245.138 344.937 245.664 347.476 245.059 349.172C242.774 355.575 235.734 362.2 229.889 365.19C226.511 366.954 216.758 370.456 215.511 364.548C216.184 360.951 225.245 361.487 228.057 358.002C231.502 353.736 224.185 346.326 224.02 344.186C224.396 342.977 225.024 342.728 226.118 341.933Z" fill="#028CA0"/>
<path d="M268.94 255.135C269.394 255.62 269.565 255.61 269.524 256.388C269.227 262.037 263.859 270.16 260.095 273.925C256.105 277.806 250.522 280.81 244.841 280.689C241.293 280.613 238.467 280.569 238.76 276.15C239.332 275.225 239.074 275.526 240.412 275.131C250.903 273.537 259.123 268.91 248.991 258.938C248.171 258.132 247.856 257.343 247.955 256.222C248.683 255.59 249.606 255.514 250.563 255.525C254.771 255.575 256.02 255.798 258.947 258.702C264.7 259.217 265.732 260.068 268.94 255.135Z" fill="#038293"/>
<path d="M291.04 623.035C292.08 623.66 295.984 633.708 296.735 635.493L310.454 667.825L305.226 667.644C301.262 659.528 298.199 650.115 294.263 641.875C292.323 637.814 290.267 632.793 288.661 628.568C284.499 636.039 280.902 643.811 277.899 651.818C276.903 655.773 273.562 663.095 276.172 667.081C280.295 669.347 282.521 660.978 283.851 658.518C286.684 653.289 289.603 652.036 295.106 650.422L295.28 650.538C292.422 651.777 291.404 651.982 288.578 654.203C283.983 657.651 283.276 664.999 278.706 667.982C277.414 668.829 274.447 666.76 274.462 664.818C274.56 652.244 284.645 633.107 291.04 623.035Z" fill="#028CA0"/>
<path d="M190.207 622.734C191.252 624.69 192.105 626.724 192.928 628.786C198.136 641.817 204.34 654.732 209.239 667.869C207.615 667.736 205.861 667.715 204.224 667.664C200.147 658.749 196.675 649.322 192.639 640.353C190.952 636.609 188.989 632.209 187.716 628.373C181.982 638.564 176.294 651.63 173.876 662.995C174.753 665.715 174.584 666.651 177.478 667.231L176.267 667.152L176.017 667.459C176.712 667.896 176.734 667.838 177.565 667.944C163.667 668.357 187.412 627.451 190.207 622.734Z" fill="#028CA0"/>
<path d="M315.353 667.914C315.048 663.081 314.96 624.192 315.884 623.028L317.304 622.991C318.228 623.114 319.533 623.117 320.102 623.636C320.466 631.346 320.334 638.001 320.185 645.688C320.044 652.934 320.411 660.582 319.981 667.794C318.36 667.688 316.962 667.808 315.353 667.914Z" fill="#028CA0"/>
<path d="M375.022 622.782C381.495 637.772 387.875 652.804 394.164 667.873C392.344 667.756 390.647 667.651 388.821 667.63C383.789 655.292 378.04 641.322 372.561 629.199L372.021 629.032L371.574 628.441C372.762 626.315 373.639 624.775 375.022 622.782Z" fill="#028CA0"/>
<path d="M139.584 622.823C142.24 622.861 150.801 622.677 152.869 623.11C152.084 623.533 152.239 623.247 152.004 623.854C149.384 623.806 147.193 623.741 144.564 623.509C145.191 637.032 144.727 654.036 144.708 667.828C142.867 667.627 141.853 667.722 140.009 667.835C139.959 653.261 139.997 638.691 139.941 624.117C139.797 623.943 139.652 623.772 139.508 623.598L139.584 622.823Z" fill="#028CA0"/>
<path d="M164.056 622.997L168.557 622.84C168.606 628.363 169.179 664.855 168.34 667.627L167.778 667.695C166.606 667.658 165.049 667.78 163.848 667.835C163.51 663.712 163.33 625.134 164.056 622.997Z" fill="#028CA0"/>
<path d="M398.404 623.049C399.8 622.998 402.279 622.731 403.402 623.267L403.416 623.537C403.02 624.523 403.088 663.757 403.098 667.61C401.596 667.569 399.916 667.733 398.4 667.839C397.912 654.197 398.206 636.814 398.404 623.049Z" fill="#028CA0"/>
<path d="M115.387 622.939L119.825 622.844C120.408 630.981 119.571 641.974 119.913 650.439C119.979 652.08 120.052 666.204 119.797 667.398L119.165 667.726L115.16 667.675C114.967 658.736 114.866 650.104 115.128 641.152C115.303 635.203 114.796 628.844 115.387 622.939Z" fill="#028CA0"/>
<path d="M79.0707 623.018L83.533 622.762L83.5364 653.275C83.533 656.094 83.7279 665.125 83.448 667.343L82.9352 667.702L78.7713 667.712C78.9246 662.521 78.0987 624.618 79.0707 623.018Z" fill="#028CA0"/>
<path d="M268.543 622.929C269.028 622.919 269.064 622.981 269.549 623.114C269.934 624.158 270.201 664.808 269.741 667.286C268.679 667.866 267.174 667.671 265.886 667.651L265.242 667.415C264.94 664.996 265.031 653.029 265.13 649.743C265.386 641.299 264.826 632.418 264.936 624.213C265.966 623.434 267.257 623.25 268.543 622.929Z" fill="#028CA0"/>
<path d="M87.7202 623.083C89.6105 622.987 90.6415 622.902 92.5264 623.123L92.8688 623.632C91.7705 625.554 92.4567 663.227 92.3454 667.849C90.8696 667.616 89.2722 667.674 87.766 667.671C87.5711 652.937 87.7366 637.841 87.7202 623.083Z" fill="#028CA0"/>
<path d="M231.795 623.018C233.755 622.912 235.059 622.642 236.749 623.629C238.513 626.772 251.05 655.09 251.356 657.138C251.379 657.292 251.392 657.446 251.412 657.599C251.859 661.046 251.421 664.756 251.189 668.221C250.519 667.023 231.652 624.11 231.64 624.028C231.59 623.69 231.743 623.356 231.795 623.018Z" fill="#028CA0"/>
<path d="M428.484 622.943L432.956 622.881C433.338 634.005 432.755 645.462 433.007 656.609C433.082 659.876 433.188 664.429 432.871 667.63C431.454 667.603 429.815 667.76 428.388 667.856L428.344 638.145C428.34 633.394 428.194 627.564 428.484 622.943Z" fill="#028CA0"/>
<path d="M333.075 624.441L333.355 623.926L334.48 623.629C337.845 624.854 340.915 626.182 342.539 629.718C343.491 631.79 343.556 634.165 342.716 636.285C341.187 640.22 337.802 641.766 334.066 642.913C342.327 647.995 343.546 655.76 347.95 664.135C347.178 665.507 347.321 665.446 348.045 666.982C334.602 662.736 342.395 651.285 333.801 643.606C327.33 643.295 325.202 642.674 321.798 637.022C322.647 637.059 326.371 641.452 327.438 641.841C338.674 645.933 342.644 629.728 333.075 624.441Z" fill="#028CA0"/>
<path d="M486.8 631.677C487.616 632.349 487.76 632.561 488.818 632.735C486.21 640.687 486.206 647.066 489.856 654.78C491.846 658.995 493.717 660.074 495.448 662.842C494.844 663.988 494.97 664.316 495.035 665.678C488.859 662.808 484.325 657.278 482.724 650.66C481.12 644.042 482.622 637.052 486.8 631.677Z" fill="#028CA0"/>
<path d="M38.9046 632.622L41.3647 633.018C37.3677 644.018 39.6212 653.476 47.1445 662.258C46.2644 662.981 46.4016 663.691 46.1408 665.06C45.7229 664.814 45.3119 664.555 44.9077 664.285C34.1764 657.121 31.7522 643.223 38.9046 632.622Z" fill="#028CA0"/>
<path d="M440.095 635.076C440.757 635.035 442.71 634.684 443.59 634.585C439.705 646.401 443.471 653.442 450.285 662.627C449.787 663.699 449.725 664.545 450.101 665.719C449.677 665.538 449.49 665.456 449.087 665.228C443.7 662.156 439.777 657.043 438.207 651.043C436.851 645.749 437.322 639.851 440.095 635.076Z" fill="#028CA0"/>
<path d="M516.153 626.332C521.322 629.499 524.982 634.629 526.296 640.548C527.614 646.466 526.467 652.664 523.128 657.722C522.844 655.685 522.899 655.466 520.981 655.197C524.299 645.176 520.564 635.861 513.965 628.288L513.961 628.168C515.307 627.551 515.453 627.557 516.153 626.332Z" fill="#028CA0"/>
<path d="M467.775 646.367C470.915 646.432 473.797 646.67 476.839 646.763C477.047 651.019 476.944 655.5 476.907 659.777C473.827 663.982 469.171 666.756 464.006 667.46C462.76 667.637 460.237 667.989 459.045 667.982L459.168 667.047C464.76 667.48 467.665 666.49 472.086 663.21C472.479 658.176 471.858 652.104 472.465 647.391L466.488 647.445C467.017 646.838 467.095 646.824 467.775 646.367Z" fill="#028CA0"/>
<path d="M440.095 635.077C447.124 622.148 463.22 618.533 474.401 628.636C474.555 630.913 474.756 633.182 475.002 635.452C473.677 633.281 472.442 631.281 470.799 629.291C464.118 621.185 451.105 622.165 445.355 630.82C444.577 631.995 444.106 633.261 443.59 634.585C442.71 634.684 440.757 635.036 440.095 635.077Z" fill="#028CA0"/>
<path d="M371.574 628.441L372.021 629.032C367.382 639.35 360.226 650.903 358.966 662.309C358.147 669.709 364.951 667.733 366.566 660.958C367.863 655.511 373.817 650.394 379.801 650.265L379.863 650.708C365.705 654.261 368.235 665.924 362.326 667.77C361.418 668.054 360.346 667.938 359.557 667.381C358.802 666.856 358.447 666.037 358.26 665.166C356.631 657.637 367.221 634.752 371.574 628.441Z" fill="#028CA0"/>
<path d="M520.981 655.196C522.899 655.466 522.844 655.684 523.128 657.722C517.024 666.958 505.079 670.344 495.035 665.678C494.97 664.316 494.844 663.988 495.448 662.842C505.014 670.661 517.358 667.21 520.981 655.196Z" fill="#028CA0"/>
<path d="M74.7285 652.046C74.6408 654.681 74.4124 657.309 74.0447 659.92C66.3955 668.61 56.4508 670.173 46.1407 665.06C46.4016 663.692 46.2643 662.982 47.1444 662.258C50.6171 665.419 54.1696 667.532 59.058 667.323C63.2977 667.163 67.2923 665.296 70.1327 662.142C72.9926 658.992 73.7102 656.033 74.7285 652.046Z" fill="#028CA0"/>
<path d="M513.002 476.624C509.322 478.801 508.806 483.645 503.416 482.45L503.163 481.941C504.672 479.081 509.704 477.535 511.333 475.102C512.074 473.996 511.944 474.088 513.292 473.409C514.364 473.989 514.231 473.712 514.706 474.62C514.388 475.631 513.825 475.941 513.002 476.624Z" fill="#020706"/>
<path d="M495.13 569.75C493.84 570.791 494.082 570.937 492.72 571.064C491.638 570.439 492.003 570.859 491.443 569.9C491.723 566.483 499.572 567.323 501.886 567.548C503.641 568.084 503.341 567.715 504.365 568.907C502.515 569.497 497.407 569.627 495.13 569.75Z" fill="#020706"/>
<path d="M466.488 647.445C464.34 647.79 461.237 647.612 459.032 648.152C457.704 648.479 454.075 650.749 452.972 650.613C452.508 649.599 452.832 648.005 453.262 647.002C454.378 646.705 465.672 646.459 467.775 646.367C467.095 646.824 467.017 646.838 466.488 647.445Z" fill="#028CA0"/>
<path d="M177.478 667.231C181.945 664.442 183.154 653.572 190.282 651.391L190.8 651.5C190.149 652.527 187.843 653.698 186.345 655.292C182.895 658.964 181.904 666.412 177.565 667.944C176.734 667.838 176.712 667.896 176.017 667.459L176.267 667.152L177.478 667.231Z" fill="#028CA0"/>
<path d="M59.7842 623.076C64.2895 623.725 66.3638 624.261 69.9395 627.168C69.3018 627.919 68.6829 628.687 68.0827 629.469C65.6527 626.663 62.9844 624.974 59.453 623.871L59.7842 623.076Z" fill="#028CA0"/>
<path d="M108.147 634.244C110.316 638.432 113.767 645.998 113.482 650.667C111.901 648.302 110.079 639.094 107.558 635.141L108.147 634.244Z" fill="#028CA0"/>
<path d="M507.011 624.131C507.557 623.527 507.448 623.714 508.305 623.366C511.084 623.851 513.746 624.858 516.153 626.332C515.453 627.557 515.307 627.551 513.961 628.168L513.965 628.288C511.415 626.001 510.203 625.428 507.011 624.131Z" fill="#028CA0"/>
<path d="M450.285 662.627C453.057 664.968 455.543 666.357 459.168 667.047L459.045 667.982C455.071 667.549 453.918 667.146 450.101 665.719C449.725 664.545 449.787 663.699 450.285 662.627Z" fill="#028CA0"/>
<path d="M92.5263 623.124C100.922 623.434 103.965 627.506 108.147 634.243L107.558 635.141C104.104 628.298 100.414 624.929 92.8687 623.632L92.5263 623.124Z" fill="#028CA0"/>
<path d="M69.9395 627.168C72.883 628.994 72.0951 632.649 71.9964 635.762C70.4851 632.131 68.9741 631.294 68.0827 629.468C68.6829 628.687 69.3018 627.919 69.9395 627.168Z" fill="#028CA0"/>
<path d="M390.644 475.6C388.565 476.45 383.345 477.351 381.778 475.238L382.01 474.682C383.758 473.948 385.424 474.269 387.326 474.467C388.729 474.692 389.845 474.583 390.644 475.6Z" fill="#020706"/>
<path d="M411.23 644.046C412.916 644.199 414.627 644.391 416.313 644.442C416.3 646.34 416.289 647.125 416.58 649.012C414.337 647.206 413.22 646.483 410.598 645.23L411.23 644.046Z" fill="#028CA0"/>
<path d="M491.897 626.895C496.701 623.635 502.583 622.369 508.305 623.366C507.448 623.714 507.557 623.526 507.011 624.13C501.531 623.444 496.772 624.103 492.297 627.642L491.897 626.895Z" fill="#028CA0"/>
<path d="M152.869 623.11C155.082 623.066 157.321 623.052 159.524 622.857L159.89 627.253C156.567 625.243 155.763 624.516 152.004 623.854C152.239 623.246 152.084 623.533 152.869 623.11Z" fill="#028CA0"/>
<path d="M416.853 623.209C419.102 623.209 421.352 623.226 423.602 623.264C423.711 624.813 423.803 626.308 424.022 627.851C421.182 625.349 420.212 624.387 416.337 623.95L416.853 623.209Z" fill="#028CA0"/>
<path d="M317.304 622.991C324.393 622.694 327.425 622.769 334.48 623.629L333.355 623.926L333.075 624.441C331.753 624.431 328.636 623.881 326.763 623.834C324.842 623.786 321.826 623.803 320.102 623.636C319.533 623.117 318.228 623.114 317.304 622.991Z" fill="#028CA0"/>
<path d="M125.011 622.806C127.104 623.055 128.35 623.062 130.464 623.048L130.223 624.202C127.486 625.096 126.626 625.939 124.424 627.738C124.747 625.892 124.87 624.677 125.011 622.806Z" fill="#028CA0"/>
<path d="M401.695 473.457C402.811 474.556 402.893 474.306 403.265 475.607L402.869 476.371C400.777 476.457 399.807 476.494 397.735 476.262L397.137 474.105C399.196 474.163 399.797 474.095 401.695 473.457Z" fill="#0CA2AF" fill-opacity="0.988235"/>
<path d="M38.9047 632.622C41.1814 629.605 43.141 627.772 46.318 625.81L46.8717 626.434C44.2392 628.257 42.7364 630.073 41.3647 633.018L38.9047 632.622Z" fill="#028CA0"/>
<path d="M403.402 623.267C406.672 622.697 413.674 622.642 416.853 623.209L416.337 623.949C413.753 623.932 405.283 624.171 403.416 623.536L403.402 623.267Z" fill="#028CA0"/>
<path d="M46.3179 625.81C50.9578 623.086 54.4345 622.148 59.7841 623.076L59.453 623.871C54.0129 623.527 51.5897 623.588 46.8717 626.434L46.3179 625.81Z" fill="#028CA0"/>
<path d="M486.8 631.677C488.238 629.827 489.958 628.212 491.897 626.895L492.297 627.643C490.795 629.581 490.054 630.629 488.818 632.735C487.76 632.561 487.616 632.349 486.8 631.677Z" fill="#028CA0"/>
<path d="M230.702 624.816C233.172 627.649 231.878 630.554 231.929 634.202L231.799 634.523L231.371 634.595C230.948 633.339 230.864 626.776 230.702 624.816Z" fill="#028CA0"/>
<path d="M410.598 645.23C408.017 644.172 405.754 642.712 404.03 640.486C406.369 641.2 407.297 642.934 410.837 643.937L411.23 644.046L410.598 645.23Z" fill="#028CA0"/>
<path d="M347.95 664.135C350.312 666.501 351.005 666.316 353.309 668.04C351.603 667.722 349.704 667.412 348.045 666.982C347.321 665.446 347.178 665.507 347.95 664.135Z" fill="#028CA0"/>
<path d="M130.934 623.035C133.814 622.854 136.699 622.782 139.584 622.823L139.508 623.598C137.614 623.881 135.593 623.786 133.669 623.762L133.667 623.711C133.13 623.093 131.958 623.161 130.934 623.035Z" fill="#028CA0"/>
<path d="M130.464 623.049L130.934 623.035C131.958 623.161 133.13 623.093 133.667 623.711L133.669 623.762C132.68 623.885 131.155 624.022 130.223 624.202L130.464 623.049Z" fill="#028CA0"/>
</svg>
